STARTFONT 2.1
FONT -Adobe-Courier-Bold-R-Normal--18-180-75-75-M-110-iso10646-0400
SIZE 18 75 75
FONTBOUNDINGBOX 13 20 -1 -5
COMMENT $XConsortium: courB18.bdf,v 1.11 95/01/26 18:00:03 gildea Exp $
COMMENT 
COMMENT +
COMMENT  Copyright 1984-1989, 1994 Adobe Systems Incorporated.
COMMENT  Copyright 1988, 1994 Digital Equipment Corporation.
COMMENT
COMMENT  Adobe is a trademark of Adobe Systems Incorporated which may be
COMMENT  registered in certain jurisdictions.
COMMENT  Permission to use these trademarks is hereby granted only in
COMMENT  association with the images described in this file.
COMMENT
COMMENT  Permission to use, copy, modify, distribute and sell this software
COMMENT  and its documentation for any purpose and without fee is hereby
COMMENT  granted, provided that the above copyright notices appear in all
COMMENT  copies and that both those copyright notices and this permission
COMMENT  notice appear in supporting documentation, and that the names of
COMMENT  Adobe Systems and Digital Equipment Corporation not be used in
COMMENT  advertising or publicity pertaining to distribution of the software
COMMENT  without specific, written prior permission.  Adobe Systems and
COMMENT  Digital Equipment Corporation make no representations about the
COMMENT  suitability of this software for any purpose.  It is provided "as
COMMENT  is" without express or implied warranty.
COMMENT -
STARTPROPERTIES 32
FOUNDRY "Adobe"
FAMILY_NAME "Courier"
WEIGHT_NAME "Bold"
SLANT "R"
SETWIDTH_NAME "Normal"
ADD_STYLE_NAME ""
PIXEL_SIZE 18
POINT_SIZE 180
RESOLUTION_X 75
RESOLUTION_Y 75
SPACING "M"
AVERAGE_WIDTH 110
CHARSET_REGISTRY "iso10646"
CHARSET_ENCODING "0400"
CAP_HEIGHT 11
X_HEIGHT 9
FONT_ASCENT 14
FONT_DESCENT 4
FACE_NAME "Courier Bold"
COPYRIGHT "Copyright (c) 1984, 1987 Adobe Systems Incorporated. All Rights Reserved. Copyright (c) 1988, 1991 Digital Equipment Corporation. All Rights Reserved."
NOTICE "No mark"
_DEC_DEVICE_FONTNAMES "PS=Courier-Bold"

STARTCHAR ldcornsqlr
ENCODING 11
SWIDTH 600 0
DWIDTH 11 0
BBX 6 10 0 4
BITMAP
0C
0C
0C
0C
0C
0C
0C
0C
FC
FC
ENDCHAR
STARTCHAR ldcornsqur
ENCODING 12
SWIDTH 600 0
DWIDTH 11 0
BBX 6 10 0 -4
BITMAP
FC
FC
0C
0C
0C
0C
0C
0C
0C
0C
ENDCHAR
STARTCHAR ldcornsqul
ENCODING 13
SWIDTH 600 0
DWIDTH 11 0
BBX 7 10 4 -4
BITMAP
FE
FE
C0
C0
C0
C0
C0
C0
C0
C0
ENDCHAR
STARTCHAR ldcornsqll
ENCODING 14
SWIDTH 600 0
DWIDTH 11 0
BBX 7 10 4 4
BITMAP
C0
C0
C0
C0
C0
C0
C0
C0
FE
FE
ENDCHAR
STARTCHAR ldcross
ENCODING 15
SWIDTH 600 0
DWIDTH 11 0
BBX 11 18 0 -4
BITMAP
0C00
0C00
0C00
0C00
0C00
0C00
0C00
0C00
FFE0
FFE0
0C00
0C00
0C00
0C00
0C00
0C00
0C00
0C00
ENDCHAR
STARTCHAR ldhorizontal
ENCODING 18
SWIDTH 600 0
DWIDTH 11 0
BBX 11 2 0 4
BITMAP
FFE0
FFE0
ENDCHAR
STARTCHAR ldteelft
ENCODING 21
SWIDTH 600 0
DWIDTH 11 0
BBX 7 18 4 -4
BITMAP
C0
C0
C0
C0
C0
C0
C0
C0
FE
FE
C0
C0
C0
C0
C0
C0
C0
C0
ENDCHAR
STARTCHAR ldteert
ENCODING 22
SWIDTH 600 0
DWIDTH 11 0
BBX 6 18 0 -4
BITMAP
0C
0C
0C
0C
0C
0C
0C
0C
FC
FC
0C
0C
0C
0C
0C
0C
0C
0C
ENDCHAR
STARTCHAR ldteebt
ENCODING 23
SWIDTH 600 0
DWIDTH 11 0
BBX 11 10 0 4
BITMAP
0C00
0C00
0C00
0C00
0C00
0C00
0C00
0C00
FFE0
FFE0
ENDCHAR
STARTCHAR ldteetp
ENCODING 24
SWIDTH 600 0
DWIDTH 11 0
BBX 11 10 0 -4
BITMAP
FFE0
FFE0
0C00
0C00
0C00
0C00
0C00
0C00
0C00
0C00
ENDCHAR
STARTCHAR ldvertical
ENCODING 25
SWIDTH 600 0
DWIDTH 11 0
BBX 2 18 4 -4
BITMAP
C0
C0
C0
C0
C0
C0
C0
C0
C0
C0
C0
C0
C0
C0
C0
C0
C0
C0
ENDCHAR
STARTCHAR space
ENCODING 32
SWIDTH 600 0
DWIDTH 11 0
BBX 0 0 0 0
BITMAP
ENDCHAR
STARTCHAR exclam
ENCODING 33
SWIDTH 600 0
DWIDTH 11 0
BBX 3 12 4 0
BITMAP
E0
E0
E0
E0
E0
E0
C0
C0
C0
00
C0
C0
ENDCHAR
STARTCHAR quotedbl
ENCODING 34
SWIDTH 600 0
DWIDTH 11 0
BBX 6 6 2 6
BITMAP
CC
CC
CC
CC
88
88
ENDCHAR
STARTCHAR numbersign
ENCODING 35
SWIDTH 600 0
DWIDTH 11 0
BBX 8 14 1 -1
BITMAP
36
36
36
36
FF
FF
6C
6C
FF
FF
6C
6C
6C
6C
ENDCHAR
STARTCHAR dollar
ENCODING 36
SWIDTH 600 0
DWIDTH 11 0
BBX 8 15 1 -2
BITMAP
18
18
3F
7F
C3
C0
F0
7E
0F
03
C7
FE
FC
18
18
ENDCHAR
STARTCHAR percent
ENCODING 37
SWIDTH 600 0
DWIDTH 11 0
BBX 8 12 1 0
BITMAP
70
D8
88
D8
73
0E
78
CE
1B
11
1B
0E
ENDCHAR
STARTCHAR ampersand
ENCODING 38
SWIDTH 600 0
DWIDTH 11 0
BBX 8 10 1 0
BITMAP
3C
7E
66
60
30
7B
FF
CE
FF
7B
ENDCHAR
STARTCHAR quotesingle
ENCODING 39
SWIDTH 600 0
DWIDTH 11 0
BBX 2 6 4 6
BITMAP
C0
C0
C0
C0
80
80
ENDCHAR
STARTCHAR parenleft
ENCODING 40
SWIDTH 600 0
DWIDTH 11 0
BBX 4 15 4 -3
BITMAP
30
30
60
60
C0
C0
C0
C0
C0
C0
C0
60
60
30
30
ENDCHAR
STARTCHAR parenright
ENCODING 41
SWIDTH 600 0
DWIDTH 11 0
BBX 4 15 2 -3
BITMAP
C0
C0
60
60
30
30
30
30
30
30
30
60
60
C0
C0
ENDCHAR
STARTCHAR asterisk
ENCODING 42
SWIDTH 600 0
DWIDTH 11 0
BBX 8 8 1 4
BITMAP
18
18
DB
7E
3C
7E
66
C3
ENDCHAR
STARTCHAR plus
ENCODING 43
SWIDTH 600 0
DWIDTH 11 0
BBX 10 10 0 0
BITMAP
0C00
0C00
0C00
0C00
FFC0
FFC0
0C00
0C00
0C00
0C00
ENDCHAR
STARTCHAR comma
ENCODING 44
SWIDTH 600 0
DWIDTH 11 0
BBX 3 5 3 -3
BITMAP
60
60
C0
C0
80
ENDCHAR
STARTCHAR minus
ENCODING 45
SWIDTH 600 0
DWIDTH 11 0
BBX 10 2 0 4
BITMAP
FFC0
FFC0
ENDCHAR
STARTCHAR period
ENCODING 46
SWIDTH 600 0
DWIDTH 11 0
BBX 2 2 4 0
BITMAP
C0
C0
ENDCHAR
STARTCHAR slash
ENCODING 47
SWIDTH 600 0
DWIDTH 11 0
BBX 9 16 0 -3
BITMAP
0180
0180
0300
0300
0600
0600
0C00
0C00
1800
1800
3000
3000
6000
6000
C000
C000
ENDCHAR
STARTCHAR zero
ENCODING 48
SWIDTH 600 0
DWIDTH 11 0
BBX 8 12 1 0
BITMAP
3C
7E
66
C3
C3
C3
C3
C3
C3
66
7E
3C
ENDCHAR
STARTCHAR one
ENCODING 49
SWIDTH 600 0
DWIDTH 11 0
BBX 8 12 1 0
BITMAP
18
F8
F8
18
18
18
18
18
18
18
FF
FF
ENDCHAR
STARTCHAR two
ENCODING 50
SWIDTH 600 0
DWIDTH 11 0
BBX 8 12 1 0
BITMAP
3C
7E
C7
C3
03
07
0E
1C
38
70
FF
FF
ENDCHAR
STARTCHAR three
ENCODING 51
SWIDTH 600 0
DWIDTH 11 0
BBX 8 12 1 0
BITMAP
3E
7F
63
03
06
3C
3E
07
03
C3
FE
7C
ENDCHAR
STARTCHAR four
ENCODING 52
SWIDTH 600 0
DWIDTH 11 0
BBX 8 12 1 0
BITMAP
0E
1E
3E
36
66
66
C6
FF
FF
06
1F
1F
ENDCHAR
STARTCHAR five
ENCODING 53
SWIDTH 600 0
DWIDTH 11 0
BBX 8 12 1 0
BITMAP
7F
7F
60
60
7E
7F
63
03
03
C7
FE
7C
ENDCHAR
STARTCHAR six
ENCODING 54
SWIDTH 600 0
DWIDTH 11 0
BBX 8 12 1 0
BITMAP
1F
7F
60
C0
DC
FE
E3
C3
C3
C3
7E
3C
ENDCHAR
STARTCHAR seven
ENCODING 55
SWIDTH 600 0
DWIDTH 11 0
BBX 8 12 1 0
BITMAP
FF
FF
C3
06
06
06
0C
0C
0C
18
18
18
ENDCHAR
STARTCHAR eight
ENCODING 56
SWIDTH 600 0
DWIDTH 11 0
BBX 8 12 1 0
BITMAP
3C
7E
C3
C3
66
3C
7E
C3
C3
C3
7E
3C
ENDCHAR
STARTCHAR nine
ENCODING 57
SWIDTH 600 0
DWIDTH 11 0
BBX 8 12 1 0
BITMAP
3C
7E
C3
C3
C3
C7
7F
3B
03
06
FE
F8
ENDCHAR
STARTCHAR colon
ENCODING 58
SWIDTH 600 0
DWIDTH 11 0
BBX 2 8 4 0
BITMAP
C0
C0
00
00
00
00
C0
C0
ENDCHAR
STARTCHAR semicolon
ENCODING 59
SWIDTH 600 0
DWIDTH 11 0
BBX 3 11 3 -3
BITMAP
60
60
00
00
00
00
60
60
C0
C0
80
ENDCHAR
STARTCHAR less
ENCODING 60
SWIDTH 600 0
DWIDTH 11 0
BBX 9 9 1 1
BITMAP
0180
0780
1E00
7800
E000
7800
1E00
0780
0180
ENDCHAR
STARTCHAR equal
ENCODING 61
SWIDTH 600 0
DWIDTH 11 0
BBX 10 6 0 2
BITMAP
FFC0
FFC0
0000
0000
FFC0
FFC0
ENDCHAR
STARTCHAR greater
ENCODING 62
SWIDTH 600 0
DWIDTH 11 0
BBX 9 9 1 1
BITMAP
C000
F000
3C00
0F00
0380
0F00
3C00
F000
C000
ENDCHAR
STARTCHAR question
ENCODING 63
SWIDTH 600 0
DWIDTH 11 0
BBX 7 11 2 0
BITMAP
7C
FE
C6
06
0E
3C
30
30
00
30
30
ENDCHAR
STARTCHAR at
ENCODING 64
SWIDTH 600 0
DWIDTH 11 0
BBX 9 13 1 -1
BITMAP
3C00
6600
C300
CF00
DB00
DB00
DB00
DB00
CF80
C000
C000
6300
3E00
ENDCHAR
STARTCHAR A
ENCODING 65
SWIDTH 600 0
DWIDTH 11 0
BBX 12 11 -1 0
BITMAP
3E00
3F00
0F00
0F00
1980
1980
3FC0
3FC0
30C0
F9F0
F9F0
ENDCHAR
STARTCHAR B
ENCODING 66
SWIDTH 600 0
DWIDTH 11 0
BBX 10 11 0 0
BITMAP
FF00
FF80
3180
3180
3F00
3F80
30C0
30C0
30C0
FF80
FF00
ENDCHAR
STARTCHAR C
ENCODING 67
SWIDTH 600 0
DWIDTH 11 0
BBX 10 11 0 0
BITMAP
1EC0
7FC0
61C0
C0C0
C000
C000
C000
C000
60C0
7FC0
1F00
ENDCHAR
STARTCHAR D
ENCODING 68
SWIDTH 600 0
DWIDTH 11 0
BBX 10 11 0 0
BITMAP
FE00
FF80
6180
60C0
60C0
60C0
60C0
60C0
6180
FF80
FE00
ENDCHAR
STARTCHAR E
ENCODING 69
SWIDTH 600 0
DWIDTH 11 0
BBX 10 11 0 0
BITMAP
FFC0
FFC0
30C0
32C0
3E00
3E00
3200
30C0
30C0
FFC0
FFC0
ENDCHAR
STARTCHAR F
ENCODING 70
SWIDTH 600 0
DWIDTH 11 0
BBX 10 11 0 0
BITMAP
FFC0
FFC0
30C0
32C0
3E00
3E00
3200
3000
3000
FE00
FE00
ENDCHAR
STARTCHAR G
ENCODING 71
SWIDTH 600 0
DWIDTH 11 0
BBX 11 11 0 0
BITMAP
1EC0
7FC0
61C0
C0C0
C000
C000
C7E0
C7E0
60C0
7FC0
1F80
ENDCHAR
STARTCHAR H
ENCODING 72
SWIDTH 600 0
DWIDTH 11 0
BBX 10 11 0 0
BITMAP
F3C0
F3C0
6180
6180
7F80
7F80
6180
6180
6180
F3C0
F3C0
ENDCHAR
STARTCHAR I
ENCODING 73
SWIDTH 600 0
DWIDTH 11 0
BBX 8 11 1 0
BITMAP
FF
FF
18
18
18
18
18
18
18
FF
FF
ENDCHAR
STARTCHAR J
ENCODING 74
SWIDTH 600 0
DWIDTH 11 0
BBX 10 11 0 0
BITMAP
1FC0
1FC0
0300
0300
0300
0300
C300
C300
C300
FE00
3C00
ENDCHAR
STARTCHAR K
ENCODING 75
SWIDTH 600 0
DWIDTH 11 0
BBX 11 11 0 0
BITMAP
F7C0
F7C0
6300
6600
6C00
7C00
7E00
6700
6380
F9E0
F9E0
ENDCHAR
STARTCHAR L
ENCODING 76
SWIDTH 600 0
DWIDTH 11 0
BBX 10 11 0 0
BITMAP
FC00
FC00
3000
3000
3000
3000
30C0
30C0
30C0
FFC0
FFC0
ENDCHAR
STARTCHAR M
ENCODING 77
SWIDTH 600 0
DWIDTH 11 0
BBX 11 11 0 0
BITMAP
E0E0
E0E0
71C0
71C0
7BC0
7FC0
6EC0
64C0
60C0
FBE0
FBE0
ENDCHAR
STARTCHAR N
ENCODING 78
SWIDTH 600 0
DWIDTH 11 0
BBX 10 11 0 0
BITMAP
E7C0
F7C0
7180
7980
6980
6D80
6580
6780
6380
FB80
F980
ENDCHAR
STARTCHAR O
ENCODING 79
SWIDTH 600 0
DWIDTH 11 0
BBX 10 11 0 0
BITMAP
1E00
7F80
6180
C0C0
C0C0
C0C0
C0C0
C0C0
6180
7F80
1E00
ENDCHAR
STARTCHAR P
ENCODING 80
SWIDTH 600 0
DWIDTH 11 0
BBX 10 11 0 0
BITMAP
FF00
FF80
61C0
60C0
61C0
7F80
7F00
6000
6000
FC00
FC00
ENDCHAR
STARTCHAR Q
ENCODING 81
SWIDTH 600 0
DWIDTH 11 0
BBX 10 13 0 -2
BITMAP
1E00
7F80
6180
C0C0
C0C0
C0C0
C0C0
C0C0
6180
7F80
1E40
3FC0
3380
ENDCHAR
STARTCHAR R
ENCODING 82
SWIDTH 600 0
DWIDTH 11 0
BBX 11 11 0 0
BITMAP
FF00
FF80
61C0
60C0
61C0
7F80
7F00
6380
61C0
FCE0
FCE0
ENDCHAR
STARTCHAR S
ENCODING 83
SWIDTH 600 0
DWIDTH 11 0
BBX 9 11 1 0
BITMAP
3D80
FF80
C380
C180
F800
7F00
0F80
C180
F180
FF00
DE00
ENDCHAR
STARTCHAR T
ENCODING 84
SWIDTH 600 0
DWIDTH 11 0
BBX 10 11 0 0
BITMAP
FFC0
FFC0
CCC0
CCC0
CCC0
0C00
0C00
0C00
0C00
3F00
3F00
ENDCHAR
STARTCHAR U
ENCODING 85
SWIDTH 600 0
DWIDTH 11 0
BBX 11 11 0 0
BITMAP
FBE0
FBE0
60C0
60C0
60C0
60C0
60C0
60C0
71C0
3F80
1F00
ENDCHAR
STARTCHAR V
ENCODING 86
SWIDTH 600 0
DWIDTH 11 0
BBX 12 11 0 0
BITMAP
F9F0
F9F0
6060
6060
30C0
30C0
1980
1980
0F00
0F00
0600
ENDCHAR
STARTCHAR W
ENCODING 87
SWIDTH 600 0
DWIDTH 11 0
BBX 12 11 0 0
BITMAP
F9F0
F9F0
6060
6660
6660
6F60
6F60
39C0
39C0
30C0
30C0
ENDCHAR
STARTCHAR X
ENCODING 88
SWIDTH 600 0
DWIDTH 11 0
BBX 10 11 0 0
BITMAP
F3C0
F3C0
6180
3300
1E00
0C00
1E00
3300
6180
F3C0
F3C0
ENDCHAR
STARTCHAR Y
ENCODING 89
SWIDTH 600 0
DWIDTH 11 0
BBX 10 11 0 0
BITMAP
F3C0
F3C0
6180
3300
3F00
1E00
0C00
0C00
0C00
3F00
3F00
ENDCHAR
STARTCHAR Z
ENCODING 90
SWIDTH 600 0
DWIDTH 11 0
BBX 8 11 1 0
BITMAP
FF
FF
C7
CE
0C
18
30
73
E3
FF
FF
ENDCHAR
STARTCHAR bracketleft
ENCODING 91
SWIDTH 600 0
DWIDTH 11 0
BBX 4 15 4 -3
BITMAP
F0
F0
C0
C0
C0
C0
C0
C0
C0
C0
C0
C0
C0
F0
F0
ENDCHAR
STARTCHAR backslash
ENCODING 92
SWIDTH 600 0
DWIDTH 11 0
BBX 9 16 1 -3
BITMAP
C000
C000
6000
6000
3000
3000
1800
1800
0C00
0C00
0600
0600
0300
0300
0180
0180
ENDCHAR
STARTCHAR bracketright
ENCODING 93
SWIDTH 600 0
DWIDTH 11 0
BBX 4 15 2 -3
BITMAP
F0
F0
30
30
30
30
30
30
30
30
30
30
30
F0
F0
ENDCHAR
STARTCHAR asciicircum
ENCODING 94
SWIDTH 600 0
DWIDTH 11 0
BBX 8 7 1 5
BITMAP
18
3C
3C
66
66
C3
C3
ENDCHAR
STARTCHAR underscore
ENCODING 95
SWIDTH 600 0
DWIDTH 11 0
BBX 11 2 0 -4
BITMAP
FFE0
FFE0
ENDCHAR
STARTCHAR grave
ENCODING 96
SWIDTH 600 0
DWIDTH 11 0
BBX 4 3 3 9
BITMAP
C0
60
30
ENDCHAR
STARTCHAR a
ENCODING 97
SWIDTH 600 0
DWIDTH 11 0
BBX 10 9 0 0
BITMAP
3F00
7F80
6180
0180
7F80
FF80
C180
FFC0
7DC0
ENDCHAR
STARTCHAR b
ENCODING 98
SWIDTH 600 0
DWIDTH 11 0
BBX 10 12 0 0
BITMAP
E000
E000
6000
6F00
7F80
71C0
60C0
60C0
60C0
71C0
FF80
EF00
ENDCHAR
STARTCHAR c
ENCODING 99
SWIDTH 600 0
DWIDTH 11 0
BBX 10 9 0 0
BITMAP
3D80
7F80
E380
C180
C000
C000
E1C0
7FC0
3F00
ENDCHAR
STARTCHAR d
ENCODING 100
SWIDTH 600 0
DWIDTH 11 0
BBX 10 12 0 0
BITMAP
0380
0380
0180
3D80
7F80
E380
C180
C180
C180
E380
7FC0
3DC0
ENDCHAR
STARTCHAR e
ENCODING 101
SWIDTH 600 0
DWIDTH 11 0
BBX 10 9 0 0
BITMAP
1E00
7F80
E1C0
C0C0
FFC0
FFC0
E000
7F80
1F80
ENDCHAR
STARTCHAR f
ENCODING 102
SWIDTH 600 0
DWIDTH 11 0
BBX 9 12 1 0
BITMAP
1F80
3F80
3000
FF00
FF00
3000
3000
3000
3000
3000
FF00
FF00
ENDCHAR
STARTCHAR g
ENCODING 103
SWIDTH 600 0
DWIDTH 11 0
BBX 10 13 0 -4
BITMAP
3DC0
7FC0
E380
C180
C180
C180
E380
7F80
3D80
0180
0380
3F00
3E00
ENDCHAR
STARTCHAR h
ENCODING 104
SWIDTH 600 0
DWIDTH 11 0
BBX 10 12 0 0
BITMAP
E000
E000
6000
6F00
7F80
7180
6180
6180
6180
6180
F3C0
F3C0
ENDCHAR
STARTCHAR i
ENCODING 105
SWIDTH 600 0
DWIDTH 11 0
BBX 8 12 1 0
BITMAP
18
18
00
F8
F8
18
18
18
18
18
FF
FF
ENDCHAR
STARTCHAR j
ENCODING 106
SWIDTH 600 0
DWIDTH 11 0
BBX 7 16 1 -4
BITMAP
0C
0C
00
FE
FE
06
06
06
06
06
06
06
06
0E
FC
F8
ENDCHAR
STARTCHAR k
ENCODING 107
SWIDTH 600 0
DWIDTH 11 0
BBX 10 12 0 0
BITMAP
E000
E000
6000
6780
6780
6E00
7C00
7C00
6E00
6700
E3C0
E3C0
ENDCHAR
STARTCHAR l
ENCODING 108
SWIDTH 600 0
DWIDTH 11 0
BBX 8 12 1 0
BITMAP
F8
F8
18
18
18
18
18
18
18
18
FF
FF
ENDCHAR
STARTCHAR m
ENCODING 109
SWIDTH 600 0
DWIDTH 11 0
BBX 12 9 -1 0
BITMAP
EDC0
FFE0
7760
6660
6660
6660
6660
F770
F770
ENDCHAR
STARTCHAR n
ENCODING 110
SWIDTH 600 0
DWIDTH 11 0
BBX 10 9 0 0
BITMAP
EF00
FF80
7180
6180
6180
6180
6180
F3C0
F3C0
ENDCHAR
STARTCHAR o
ENCODING 111
SWIDTH 600 0
DWIDTH 11 0
BBX 10 9 0 0
BITMAP
1E00
7F80
E1C0
C0C0
C0C0
C0C0
E1C0
7F80
1E00
ENDCHAR
STARTCHAR p
ENCODING 112
SWIDTH 600 0
DWIDTH 11 0
BBX 10 13 0 -4
BITMAP
EF00
FF80
71C0
60C0
60C0
60C0
71C0
7F80
6F00
6000
6000
F800
F800
ENDCHAR
STARTCHAR q
ENCODING 113
SWIDTH 600 0
DWIDTH 11 0
BBX 10 13 0 -4
BITMAP
3DC0
7FC0
E380
C180
C180
C180
E380
7F80
3D80
0180
0180
07C0
07C0
ENDCHAR
STARTCHAR r
ENCODING 114
SWIDTH 600 0
DWIDTH 11 0
BBX 10 9 0 0
BITMAP
F380
FFC0
3CC0
3800
3000
3000
3000
FF00
FF00
ENDCHAR
STARTCHAR s
ENCODING 115
SWIDTH 600 0
DWIDTH 11 0
BBX 8 9 1 0
BITMAP
7F
FF
C3
F0
7E
1F
C3
FF
FE
ENDCHAR
STARTCHAR t
ENCODING 116
SWIDTH 600 0
DWIDTH 11 0
BBX 10 12 0 0
BITMAP
3000
3000
3000
FF00
FF00
3000
3000
3000
3000
30C0
3FC0
1F00
ENDCHAR
STARTCHAR u
ENCODING 117
SWIDTH 600 0
DWIDTH 11 0
BBX 10 9 0 0
BITMAP
E780
E780
6180
6180
6180
6180
6380
7FC0
3DC0
ENDCHAR
STARTCHAR v
ENCODING 118
SWIDTH 600 0
DWIDTH 11 0
BBX 10 9 0 0
BITMAP
F3C0
F3C0
6180
6180
3300
3300
1E00
1E00
0C00
ENDCHAR
STARTCHAR w
ENCODING 119
SWIDTH 600 0
DWIDTH 11 0
BBX 11 9 0 0
BITMAP
F1E0
F1E0
64C0
6EC0
6EC0
3B80
3B80
3180
3180
ENDCHAR
STARTCHAR x
ENCODING 120
SWIDTH 600 0
DWIDTH 11 0
BBX 11 9 0 0
BITMAP
FBE0
FBE0
3180
1B00
0E00
1B00
3180
FBE0
FBE0
ENDCHAR
STARTCHAR y
ENCODING 121
SWIDTH 600 0
DWIDTH 11 0
BBX 10 13 0 -4
BITMAP
F3C0
F3C0
6180
6180
3300
3600
1E00
1C00
1800
1800
3000
FC00
FC00
ENDCHAR
STARTCHAR z
ENCODING 122
SWIDTH 600 0
DWIDTH 11 0
BBX 8 9 1 0
BITMAP
FF
FF
C6
0C
18
30
63
FF
FF
ENDCHAR
STARTCHAR braceleft
ENCODING 123
SWIDTH 600 0
DWIDTH 11 0
BBX 4 15 3 -3
BITMAP
30
60
60
60
60
60
C0
60
60
60
60
60
60
60
30
ENDCHAR
STARTCHAR bar
ENCODING 124
SWIDTH 600 0
DWIDTH 11 0
BBX 2 16 4 -3
BITMAP
C0
C0
C0
C0
C0
C0
C0
C0
C0
C0
C0
C0
C0
C0
C0
C0
ENDCHAR
STARTCHAR braceright
ENCODING 125
SWIDTH 600 0
DWIDTH 11 0
BBX 4 15 3 -3
BITMAP
C0
60
60
60
60
60
30
60
60
60
60
60
60
60
C0
ENDCHAR
STARTCHAR asciitilde
ENCODING 126
SWIDTH 600 0
DWIDTH 11 0
BBX 8 3 1 4
BITMAP
73
FF
DE
ENDCHAR
STARTCHAR space
ENCODING 160
SWIDTH 600 0
DWIDTH 11 0
BBX 0 0 0 0
BITMAP
ENDCHAR
STARTCHAR exclamdown
ENCODING 161
SWIDTH 600 0
DWIDTH 11 0
BBX 3 12 4 -4
BITMAP
60
60
00
60
60
60
E0
E0
E0
E0
E0
E0
ENDCHAR
STARTCHAR cent
ENCODING 162
SWIDTH 600 0
DWIDTH 11 0
BBX 8 13 1 0
BITMAP
18
18
18
3F
7F
E3
C0
C0
E3
7F
3E
18
18
ENDCHAR
STARTCHAR sterling
ENCODING 163
SWIDTH 600 0
DWIDTH 11 0
BBX 10 11 0 0
BITMAP
3E00
7F00
6300
6000
3000
FC00
FC00
3000
60C0
FFC0
FF80
ENDCHAR
STARTCHAR currency
ENCODING 164
SWIDTH 600 0
DWIDTH 11 0
BBX 8 9 1 1
BITMAP
C3
FF
7E
C3
C3
C3
7E
FF
C3
ENDCHAR
STARTCHAR yen
ENCODING 165
SWIDTH 600 0
DWIDTH 11 0
BBX 10 11 0 0
BITMAP
F3C0
F3C0
6180
3300
1E00
3F00
0C00
3F00
0C00
3F00
3F00
ENDCHAR
STARTCHAR brokenbar
ENCODING 166
SWIDTH 600 0
DWIDTH 11 0
BBX 2 16 4 -3
BITMAP
C0
C0
C0
C0
C0
C0
C0
00
00
C0
C0
C0
C0
C0
C0
C0
ENDCHAR
STARTCHAR section
ENCODING 167
SWIDTH 600 0
DWIDTH 11 0
BBX 8 14 1 -2
BITMAP
3F
73
63
60
F8
DE
C7
E3
7B
1F
06
C6
CE
FC
ENDCHAR
STARTCHAR dieresis
ENCODING 168
SWIDTH 600 0
DWIDTH 11 0
BBX 6 2 2 9
BITMAP
CC
CC
ENDCHAR
STARTCHAR copyright
ENCODING 169
SWIDTH 600 0
DWIDTH 11 0
BBX 12 12 0 0
BITMAP
0F00
3FC0
70E0
6F60
DDB0
D830
D830
DDB0
6F60
70E0
3FC0
0F00
ENDCHAR
STARTCHAR ordfeminine
ENCODING 170
SWIDTH 600 0
DWIDTH 11 0
BBX 6 8 2 3
BITMAP
F0
18
78
D8
D8
6C
00
FC
ENDCHAR
STARTCHAR guillemotleft
ENCODING 171
SWIDTH 600 0
DWIDTH 11 0
BBX 9 7 1 1
BITMAP
1980
3300
6600
CC00
6600
3300
1980
ENDCHAR
STARTCHAR logicalnot
ENCODING 172
SWIDTH 600 0
DWIDTH 11 0
BBX 9 4 1 4
BITMAP
FF80
FF80
0180
0180
ENDCHAR
STARTCHAR hyphen
ENCODING 173
SWIDTH 600 0
DWIDTH 11 0
BBX 9 2 1 4
BITMAP
FF80
FF80
ENDCHAR
STARTCHAR registered
ENCODING 174
SWIDTH 600 0
DWIDTH 11 0
BBX 12 12 0 0
BITMAP
0F00
3FC0
70E0
6F60
CDB0
CDB0
CF30
CDB0
6DE0
70E0
3FC0
0F00
ENDCHAR
STARTCHAR macron
ENCODING 175
SWIDTH 600 0
DWIDTH 11 0
BBX 5 1 3 9
BITMAP
F8
ENDCHAR
STARTCHAR degree
ENCODING 176
SWIDTH 600 0
DWIDTH 11 0
BBX 6 5 2 7
BITMAP
78
CC
CC
CC
78
ENDCHAR
STARTCHAR plusminus
ENCODING 177
SWIDTH 600 0
DWIDTH 11 0
BBX 10 10 0 0
BITMAP
0C00
0C00
FFC0
FFC0
0C00
0C00
0C00
0000
FFC0
FFC0
ENDCHAR
STARTCHAR twosuperior
ENCODING 178
SWIDTH 600 0
DWIDTH 11 0
BBX 6 7 2 5
BITMAP
78
CC
0C
18
30
60
FC
ENDCHAR
STARTCHAR threesuperior
ENCODING 179
SWIDTH 600 0
DWIDTH 11 0
BBX 6 7 2 5
BITMAP
78
CC
0C
38
0C
CC
78
ENDCHAR
STARTCHAR acute
ENCODING 180
SWIDTH 600 0
DWIDTH 11 0
BBX 4 3 4 9
BITMAP
30
60
C0
ENDCHAR
STARTCHAR mu
ENCODING 181
SWIDTH 600 0
DWIDTH 11 0
BBX 10 13 0 -4
BITMAP
E780
E780
6180
6180
6180
6180
6380
7FC0
7DC0
6000
6000
6000
6000
ENDCHAR
STARTCHAR paragraph
ENCODING 182
SWIDTH 600 0
DWIDTH 11 0
BBX 8 13 1 -1
BITMAP
3F
6A
CA
CA
CA
6A
3A
0A
0A
0A
0A
0A
3F
ENDCHAR
STARTCHAR periodcentered
ENCODING 183
SWIDTH 600 0
DWIDTH 11 0
BBX 2 2 4 5
BITMAP
C0
C0
ENDCHAR
STARTCHAR cedilla
ENCODING 184
SWIDTH 600 0
DWIDTH 11 0
BBX 4 5 3 -4
BITMAP
60
60
30
F0
E0
ENDCHAR
STARTCHAR onesuperior
ENCODING 185
SWIDTH 600 0
DWIDTH 11 0
BBX 6 7 2 5
BITMAP
30
F0
30
30
30
30
FC
ENDCHAR
STARTCHAR ordmasculine
ENCODING 186
SWIDTH 600 0
DWIDTH 11 0
BBX 6 8 2 3
BITMAP
78
CC
CC
CC
CC
78
00
FC
ENDCHAR
STARTCHAR guillemotright
ENCODING 187
SWIDTH 600 0
DWIDTH 11 0
BBX 9 7 1 1
BITMAP
CC00
6600
3300
1980
3300
6600
CC00
ENDCHAR
STARTCHAR onequarter
ENCODING 188
SWIDTH 600 0
DWIDTH 11 0
BBX 11 14 0 -1
BITMAP
3000
F000
3020
3060
30C0
3180
FB00
0640
0CC0
19C0
32C0
64C0
47E0
00C0
ENDCHAR
STARTCHAR onehalf
ENCODING 189
SWIDTH 600 0
DWIDTH 11 0
BBX 11 14 0 -1
BITMAP
3000
F000
3020
3060
30C0
3180
FF00
07C0
0E60
1860
30C0
6180
4320
07E0
ENDCHAR
STARTCHAR threequarters
ENCODING 190
SWIDTH 600 0
DWIDTH 11 0
BBX 11 14 0 -1
BITMAP
7800
CC00
0C20
3860
0CC0
CD80
7B00
0640
0CC0
19C0
32C0
64C0
47E0
00C0
ENDCHAR
STARTCHAR questiondown
ENCODING 191
SWIDTH 600 0
DWIDTH 11 0
BBX 7 12 2 -4
BITMAP
18
18
00
18
18
18
78
E0
C0
C6
FE
7C
ENDCHAR
STARTCHAR Agrave
ENCODING 192
SWIDTH 600 0
DWIDTH 11 0
BBX 12 15 -1 0
BITMAP
1800
0C00
0600
0000
3E00
3F00
0F00
0F00
1980
1980
3FC0
3FC0
30C0
F9F0
F9F0
ENDCHAR
STARTCHAR Aacute
ENCODING 193
SWIDTH 600 0
DWIDTH 11 0
BBX 12 15 -1 0
BITMAP
0180
0300
0600
0000
3E00
3F00
0F00
0F00
1980
1980
3FC0
3FC0
30C0
F9F0
F9F0
ENDCHAR
STARTCHAR Acircumflex
ENCODING 194
SWIDTH 600 0
DWIDTH 11 0
BBX 12 15 -1 0
BITMAP
0600
0F00
1980
0000
3E00
3F00
0F00
0F00
1980
1980
3FC0
3FC0
30C0
F9F0
F9F0
ENDCHAR
STARTCHAR Atilde
ENCODING 195
SWIDTH 600 0
DWIDTH 11 0
BBX 12 14 -1 0
BITMAP
1D80
3700
0000
3E00
3F00
0F00
0F00
1980
1980
3FC0
3FC0
30C0
F9F0
F9F0
ENDCHAR
STARTCHAR Adieresis
ENCODING 196
SWIDTH 600 0
DWIDTH 11 0
BBX 12 14 -1 0
BITMAP
1980
1980
0000
3E00
3F00
0F00
0F00
1980
1980
3FC0
3FC0
30C0
F9F0
F9F0
ENDCHAR
STARTCHAR Aring
ENCODING 197
SWIDTH 600 0
DWIDTH 11 0
BBX 12 15 -1 0
BITMAP
0600
0900
0900
0600
3E00
3F00
0F00
0F00
1980
1980
3FC0
3FC0
30C0
F9F0
F9F0
ENDCHAR
STARTCHAR AE
ENCODING 198
SWIDTH 600 0
DWIDTH 11 0
BBX 11 11 0 0
BITMAP
3FE0
3FE0
1E60
1600
37C0
37C0
3E00
7E00
6660
EFE0
EFE0
ENDCHAR
STARTCHAR Ccedilla
ENCODING 199
SWIDTH 600 0
DWIDTH 11 0
BBX 10 16 0 -5
BITMAP
1EC0
7FC0
61C0
C0C0
C000
C000
C000
C000
60C0
7FC0
1F00
0C00
0E00
0200
1E00
1C00
ENDCHAR
STARTCHAR Egrave
ENCODING 200
SWIDTH 600 0
DWIDTH 11 0
BBX 10 15 0 0
BITMAP
1800
0C00
0600
0000
FFC0
FFC0
30C0
36C0
3E00
3E00
3600
30C0
30C0
FFC0
FFC0
ENDCHAR
STARTCHAR Eacute
ENCODING 201
SWIDTH 600 0
DWIDTH 11 0
BBX 10 15 0 0
BITMAP
0600
0C00
1800
0000
FFC0
FFC0
30C0
36C0
3E00
3E00
3600
30C0
30C0
FFC0
FFC0
ENDCHAR
STARTCHAR Ecircumflex
ENCODING 202
SWIDTH 600 0
DWIDTH 11 0
BBX 10 15 0 0
BITMAP
0C00
1E00
3300
0000
FFC0
FFC0
30C0
36C0
3E00
3E00
3600
30C0
30C0
FFC0
FFC0
ENDCHAR
STARTCHAR Edieresis
ENCODING 203
SWIDTH 600 0
DWIDTH 11 0
BBX 10 14 0 0
BITMAP
3300
3300
0000
FFC0
FFC0
30C0
36C0
3E00
3E00
3600
30C0
30C0
FFC0
FFC0
ENDCHAR
STARTCHAR Igrave
ENCODING 204
SWIDTH 600 0
DWIDTH 11 0
BBX 8 15 1 0
BITMAP
30
18
0C
00
FF
FF
18
18
18
18
18
18
18
FF
FF
ENDCHAR
STARTCHAR Iacute
ENCODING 205
SWIDTH 600 0
DWIDTH 11 0
BBX 8 15 1 0
BITMAP
0C
18
30
00
FF
FF
18
18
18
18
18
18
18
FF
FF
ENDCHAR
STARTCHAR Icircumflex
ENCODING 206
SWIDTH 600 0
DWIDTH 11 0
BBX 8 15 1 0
BITMAP
18
3C
66
00
FF
FF
18
18
18
18
18
18
18
FF
FF
ENDCHAR
STARTCHAR Idieresis
ENCODING 207
SWIDTH 600 0
DWIDTH 11 0
BBX 8 14 1 0
BITMAP
66
66
00
FF
FF
18
18
18
18
18
18
18
FF
FF
ENDCHAR
STARTCHAR Eth
ENCODING 208
SWIDTH 600 0
DWIDTH 11 0
BBX 10 11 0 0
BITMAP
FE00
FF80
6180
60C0
F8C0
F8C0
60C0
60C0
6180
FF80
FE00
ENDCHAR
STARTCHAR Ntilde
ENCODING 209
SWIDTH 600 0
DWIDTH 11 0
BBX 10 14 0 0
BITMAP
3B00
6E00
0000
E3C0
F3C0
7180
7980
6980
6D80
6580
6780
6380
FB80
F980
ENDCHAR
STARTCHAR Ograve
ENCODING 210
SWIDTH 600 0
DWIDTH 11 0
BBX 10 15 0 0
BITMAP
3000
1800
0C00
0000
1E00
7F80
6180
C0C0
C0C0
C0C0
C0C0
C0C0
6180
7F80
1E00
ENDCHAR
STARTCHAR Oacute
ENCODING 211
SWIDTH 600 0
DWIDTH 11 0
BBX 10 15 0 0
BITMAP
0300
0600
0C00
0000
1E00
7F80
6180
C0C0
C0C0
C0C0
C0C0
C0C0
6180
7F80
1E00
ENDCHAR
STARTCHAR Ocircumflex
ENCODING 212
SWIDTH 600 0
DWIDTH 11 0
BBX 10 15 0 0
BITMAP
0C00
1E00
3300
0000
1E00
7F80
6180
C0C0
C0C0
C0C0
C0C0
C0C0
6180
7F80
1E00
ENDCHAR
STARTCHAR Otilde
ENCODING 213
SWIDTH 600 0
DWIDTH 11 0
BBX 10 14 0 0
BITMAP
1D80
3700
0000
1E00
7F80
6180
C0C0
C0C0
C0C0
C0C0
C0C0
6180
7F80
1E00
ENDCHAR
STARTCHAR Odieresis
ENCODING 214
SWIDTH 600 0
DWIDTH 11 0
BBX 10 14 0 0
BITMAP
3300
3300
0000
1E00
7F80
6180
C0C0
C0C0
C0C0
C0C0
C0C0
6180
7F80
1E00
ENDCHAR
STARTCHAR multiply
ENCODING 215
SWIDTH 600 0
DWIDTH 11 0
BBX 10 10 0 0
BITMAP
4080
E1C0
7380
3F00
1E00
1E00
3F00
7380
E1C0
4080
ENDCHAR
STARTCHAR Oslash
ENCODING 216
SWIDTH 600 0
DWIDTH 11 0
BBX 12 13 -1 -1
BITMAP
0030
0F60
3FC0
31C0
6360
6660
6660
6C60
7860
30C0
3FC0
6F00
C000
ENDCHAR
STARTCHAR Ugrave
ENCODING 217
SWIDTH 600 0
DWIDTH 11 0
BBX 11 15 0 0
BITMAP
1800
0C00
0600
0000
FBE0
FBE0
60C0
60C0
60C0
60C0
60C0
60C0
71C0
3F80
1F00
ENDCHAR
STARTCHAR Uacute
ENCODING 218
SWIDTH 600 0
DWIDTH 11 0
BBX 11 15 0 0
BITMAP
0180
0300
0600
0000
FBE0
FBE0
60C0
60C0
60C0
60C0
60C0
60C0
71C0
3F80
1F00
ENDCHAR
STARTCHAR Ucircumflex
ENCODING 219
SWIDTH 600 0
DWIDTH 11 0
BBX 11 15 0 0
BITMAP
0600
0F00
1980
0000
FBE0
FBE0
60C0
60C0
60C0
60C0
60C0
60C0
71C0
3F80
1F00
ENDCHAR
STARTCHAR Udieresis
ENCODING 220
SWIDTH 600 0
DWIDTH 11 0
BBX 11 14 0 0
BITMAP
3180
3180
0000
FBE0
FBE0
60C0
60C0
60C0
60C0
60C0
60C0
71C0
3F80
1F00
ENDCHAR
STARTCHAR Yacute
ENCODING 221
SWIDTH 600 0
DWIDTH 11 0
BBX 10 15 0 0
BITMAP
0300
0600
0C00
0000
F3C0
F3C0
6180
3300
3F00
1E00
0C00
0C00
0C00
3F00
3F00
ENDCHAR
STARTCHAR Thorn
ENCODING 222
SWIDTH 600 0
DWIDTH 11 0
BBX 10 11 0 0
BITMAP
F000
6000
7F00
7F80
61C0
60C0
61C0
7F80
7F00
6000
F000
ENDCHAR
STARTCHAR germandbls
ENCODING 223
SWIDTH 600 0
DWIDTH 11 0
BBX 9 12 1 0
BITMAP
3C00
7E00
6300
6300
6700
6E00
6700
6180
6180
6980
EF80
E700
ENDCHAR
STARTCHAR agrave
ENCODING 224
SWIDTH 600 0
DWIDTH 11 0
BBX 10 13 0 0
BITMAP
1800
0C00
0600
0000
3F00
7F80
6180
0180
7F80
FF80
C180
FFC0
7DC0
ENDCHAR
STARTCHAR aacute
ENCODING 225
SWIDTH 600 0
DWIDTH 11 0
BBX 10 13 0 0
BITMAP
0300
0600
0C00
0000
3F00
7F80
6180
0180
7F80
FF80
C180
FFC0
7DC0
ENDCHAR
STARTCHAR acircumflex
ENCODING 226
SWIDTH 600 0
DWIDTH 11 0
BBX 10 13 0 0
BITMAP
0C00
1E00
3300
0000
3F00
7F80
6180
0180
7F80
FF80
C180
FFC0
7DC0
ENDCHAR
STARTCHAR atilde
ENCODING 227
SWIDTH 600 0
DWIDTH 11 0
BBX 10 12 0 0
BITMAP
1D80
3700
0000
3F00
7F80
6180
0180
7F80
FF80
C180
FFC0
7DC0
ENDCHAR
STARTCHAR adieresis
ENCODING 228
SWIDTH 600 0
DWIDTH 11 0
BBX 10 12 0 0
BITMAP
3300
3300
0000
3F00
7F80
6180
0180
7F80
FF80
C180
FFC0
7DC0
ENDCHAR
STARTCHAR aring
ENCODING 229
SWIDTH 600 0
DWIDTH 11 0
BBX 10 14 0 0
BITMAP
0C00
1200
1200
0C00
0000
3F00
7F80
6180
0180
7F80
FF80
C180
FFC0
7DC0
ENDCHAR
STARTCHAR ae
ENCODING 230
SWIDTH 600 0
DWIDTH 11 0
BBX 11 9 0 0
BITMAP
3B80
7FC0
6660
0660
7FE0
FFE0
C600
FFE0
79C0
ENDCHAR
STARTCHAR ccedilla
ENCODING 231
SWIDTH 600 0
DWIDTH 11 0
BBX 10 14 0 -5
BITMAP
3D80
7F80
E380
C180
C000
C000
E1C0
7FC0
3F00
0C00
0E00
0600
1E00
1C00
ENDCHAR
STARTCHAR egrave
ENCODING 232
SWIDTH 600 0
DWIDTH 11 0
BBX 10 13 0 0
BITMAP
1800
0C00
0600
0000
1E00
7F80
E1C0
C0C0
FFC0
FFC0
E000
7F80
1F80
ENDCHAR
STARTCHAR eacute
ENCODING 233
SWIDTH 600 0
DWIDTH 11 0
BBX 10 13 0 0
BITMAP
0300
0600
0C00
0000
1E00
7F80
E1C0
C0C0
FFC0
FFC0
E000
7F80
1F80
ENDCHAR
STARTCHAR ecircumflex
ENCODING 234
SWIDTH 600 0
DWIDTH 11 0
BBX 10 13 0 0
BITMAP
0C00
1E00
3300
0000
1E00
7F80
E1C0
C0C0
FFC0
FFC0
E000
7F80
1F80
ENDCHAR
STARTCHAR edieresis
ENCODING 235
SWIDTH 600 0
DWIDTH 11 0
BBX 10 12 0 0
BITMAP
3300
3300
0000
1E00
7F80
E1C0
C0C0
FFC0
FFC0
E000
7F80
1F80
ENDCHAR
STARTCHAR igrave
ENCODING 236
SWIDTH 600 0
DWIDTH 11 0
BBX 8 13 1 0
BITMAP
60
30
18
00
F8
F8
18
18
18
18
18
FF
FF
ENDCHAR
STARTCHAR iacute
ENCODING 237
SWIDTH 600 0
DWIDTH 11 0
BBX 8 13 1 0
BITMAP
06
0C
18
00
F8
F8
18
18
18
18
18
FF
FF
ENDCHAR
STARTCHAR icircumflex
ENCODING 238
SWIDTH 600 0
DWIDTH 11 0
BBX 8 13 1 0
BITMAP
18
3C
66
00
F8
F8
18
18
18
18
18
FF
FF
ENDCHAR
STARTCHAR idieresis
ENCODING 239
SWIDTH 600 0
DWIDTH 11 0
BBX 8 12 1 0
BITMAP
66
66
00
F8
F8
18
18
18
18
18
FF
FF
ENDCHAR
STARTCHAR eth
ENCODING 240
SWIDTH 600 0
DWIDTH 11 0
BBX 10 14 0 0
BITMAP
E700
7700
3C00
FE00
C700
3F80
7F80
E1C0
C0C0
C0C0
C0C0
E1C0
7F80
1E00
ENDCHAR
STARTCHAR ntilde
ENCODING 241
SWIDTH 600 0
DWIDTH 11 0
BBX 10 12 0 0
BITMAP
1D80
3700
0000
EF00
FF80
7180
6180
6180
6180
6180
F3C0
F3C0
ENDCHAR
STARTCHAR ograve
ENCODING 242
SWIDTH 600 0
DWIDTH 11 0
BBX 10 13 0 0
BITMAP
3000
1800
0C00
0000
1E00
7F80
E1C0
C0C0
C0C0
C0C0
E1C0
7F80
1E00
ENDCHAR
STARTCHAR oacute
ENCODING 243
SWIDTH 600 0
DWIDTH 11 0
BBX 10 13 0 0
BITMAP
0300
0600
0C00
0000
1E00
7F80
E1C0
C0C0
C0C0
C0C0
E1C0
7F80
1E00
ENDCHAR
STARTCHAR ocircumflex
ENCODING 244
SWIDTH 600 0
DWIDTH 11 0
BBX 10 13 0 0
BITMAP
0C00
1E00
3300
0000
1E00
7F80
E1C0
C0C0
C0C0
C0C0
E1C0
7F80
1E00
ENDCHAR
STARTCHAR otilde
ENCODING 245
SWIDTH 600 0
DWIDTH 11 0
BBX 10 12 0 0
BITMAP
1D80
3700
0000
1E00
7F80
E1C0
C0C0
C0C0
C0C0
E1C0
7F80
1E00
ENDCHAR
STARTCHAR odieresis
ENCODING 246
SWIDTH 600 0
DWIDTH 11 0
BBX 10 12 0 0
BITMAP
3300
3300
0000
1E00
7F80
E1C0
C0C0
C0C0
C0C0
E1C0
7F80
1E00
ENDCHAR
STARTCHAR divide
ENCODING 247
SWIDTH 600 0
DWIDTH 11 0
BBX 10 10 0 0
BITMAP
0C00
0C00
0000
0000
FFC0
FFC0
0000
0000
0C00
0C00
ENDCHAR
STARTCHAR oslash
ENCODING 248
SWIDTH 600 0
DWIDTH 11 0
BBX 12 11 -1 -1
BITMAP
0030
0F60
3FC0
71E0
6360
6660
6C60
78E0
3FC0
6F00
C000
ENDCHAR
STARTCHAR ugrave
ENCODING 249
SWIDTH 600 0
DWIDTH 11 0
BBX 10 13 0 0
BITMAP
3000
1800
0C00
0000
E780
E780
6180
6180
6180
6180
6380
7FC0
3DC0
ENDCHAR
STARTCHAR uacute
ENCODING 250
SWIDTH 600 0
DWIDTH 11 0
BBX 10 13 0 0
BITMAP
0300
0600
0C00
0000
E780
E780
6180
6180
6180
6180
6380
7FC0
3DC0
ENDCHAR
STARTCHAR ucircumflex
ENCODING 251
SWIDTH 600 0
DWIDTH 11 0
BBX 10 13 0 0
BITMAP
0C00
1E00
3300
0000
E780
E780
6180
6180
6180
6180
6380
7FC0
3DC0
ENDCHAR
STARTCHAR udieresis
ENCODING 252
SWIDTH 600 0
DWIDTH 11 0
BBX 10 12 0 0
BITMAP
3300
3300
0000
E780
E780
6180
6180
6180
6180
6380
7FC0
3DC0
ENDCHAR
STARTCHAR yacute
ENCODING 253
SWIDTH 600 0
DWIDTH 11 0
BBX 10 17 0 -4
BITMAP
0300
0600
0C00
0000
F3C0
F3C0
6180
6180
3300
3600
1E00
1C00
1800
1800
3000
FC00
FC00
ENDCHAR
STARTCHAR thorn
ENCODING 254
SWIDTH 600 0
DWIDTH 11 0
BBX 10 16 0 -4
BITMAP
E000
E000
6000
6F00
7F80
71C0
60C0
60C0
60C0
71C0
7F80
6F00
6000
6000
F800
F800
ENDCHAR
STARTCHAR ydieresis
ENCODING 255
SWIDTH 600 0
DWIDTH 11 0
BBX 10 16 0 -4
BITMAP
3300
3300
0000
F3C0
F3C0
6180
6380
3300
3600
1E00
1C00
1800
1800
3000
FC00
FC00
ENDCHAR
STARTCHAR uni0400
ENCODING 1024
SWIDTH 600 0
DWIDTH 11 0
BBX 10 15 0 0
BITMAP
1800
0C00
0600
0000
FFC0
FFC0
30C0
36C0
3E00
3E00
3600
30C0
30C0
FFC0
FFC0
ENDCHAR
STARTCHAR afii10023
ENCODING 1025
SWIDTH 600 0
DWIDTH 11 0
BBX 10 14 0 0
BITMAP
3300
3300
0000
FFC0
FFC0
30C0
32C0
3E00
3E00
3200
30C0
30C0
FFC0
FFC0
ENDCHAR
STARTCHAR afii10053
ENCODING 1028
SWIDTH 600 0
DWIDTH 11 0
BBX 10 11 0 0
BITMAP
1EC0
7FC0
61C0
C0C0
FC00
FC00
C000
C000
60C0
7FC0
1F00
ENDCHAR
STARTCHAR afii10054
ENCODING 1029
SWIDTH 600 0
DWIDTH 11 0
BBX 9 11 1 0
BITMAP
3D80
FF80
C380
C180
F800
7F00
0F80
C180
F180
FF00
DE00
ENDCHAR
STARTCHAR afii10055
ENCODING 1030
SWIDTH 600 0
DWIDTH 11 0
BBX 8 11 1 0
BITMAP
FF
FF
18
18
18
18
18
18
18
FF
FF
ENDCHAR
STARTCHAR afii10056
ENCODING 1031
SWIDTH 600 0
DWIDTH 11 0
BBX 8 14 1 0
BITMAP
66
66
00
FF
FF
18
18
18
18
18
18
18
FF
FF
ENDCHAR
STARTCHAR afii10057
ENCODING 1032
SWIDTH 600 0
DWIDTH 11 0
BBX 10 11 0 0
BITMAP
1FC0
1FC0
0300
0300
0300
0300
C300
C300
C300
FE00
3C00
ENDCHAR
STARTCHAR afii10062
ENCODING 1038
SWIDTH 600 0
DWIDTH 11 0
BBX 11 15 0 0
BITMAP
3180
3F80
1F00
0000
F1E0
F1E0
60C0
3180
3180
1B00
1B00
0E00
6E00
7C00
3800
ENDCHAR
STARTCHAR afii10017
ENCODING 1040
SWIDTH 600 0
DWIDTH 11 0
BBX 12 11 -1 0
BITMAP
3E00
3F00
0F00
0F00
1980
1980
3FC0
3FC0
30C0
F9F0
F9F0
ENDCHAR
STARTCHAR afii10018
ENCODING 1041
SWIDTH 600 0
DWIDTH 11 0
BBX 10 11 0 0
BITMAP
FFC0
FFC0
60C0
6000
7F00
7F80
61C0
60C0
61C0
FF80
FF00
ENDCHAR
STARTCHAR afii10019
ENCODING 1042
SWIDTH 600 0
DWIDTH 11 0
BBX 10 11 0 0
BITMAP
FF00
FF80
3180
3180
3F00
3F80
30C0
30C0
30C0
FF80
FF00
ENDCHAR
STARTCHAR afii10020
ENCODING 1043
SWIDTH 600 0
DWIDTH 11 0
BBX 10 11 0 0
BITMAP
FFC0
FFC0
30C0
30C0
30C0
3000
3000
3000
3000
FC00
FC00
ENDCHAR
STARTCHAR afii10021
ENCODING 1044
SWIDTH 600 0
DWIDTH 11 0
BBX 10 13 0 -2
BITMAP
7FC0
7FC0
3180
3180
3180
3180
3180
3180
6180
FFC0
FFC0
C0C0
C0C0
ENDCHAR
STARTCHAR afii10022
ENCODING 1045
SWIDTH 600 0
DWIDTH 11 0
BBX 10 11 0 0
BITMAP
FFC0
FFC0
30C0
32C0
3E00
3E00
3200
30C0
30C0
FFC0
FFC0
ENDCHAR
STARTCHAR afii10024
ENCODING 1046
SWIDTH 600 0
DWIDTH 11 0
BBX 12 11 0 0
BITMAP
EF70
EF70
6660
36C0
1F80
0F00
1F80
36C0
6660
EF70
EF70
ENDCHAR
STARTCHAR afii10025
ENCODING 1047
SWIDTH 600 0
DWIDTH 11 0
BBX 10 11 0 0
BITMAP
DF00
FF80
E180
C180
1F00
1F80
00C0
00C0
C0C0
FF80
3F00
ENDCHAR
STARTCHAR afii10026
ENCODING 1048
SWIDTH 600 0
DWIDTH 11 0
BBX 10 11 0 0
BITMAP
F1C0
F3C0
6380
6780
6580
6D80
6980
7980
7180
F3C0
E3C0
ENDCHAR
STARTCHAR afii10027
ENCODING 1049
SWIDTH 600 0
DWIDTH 11 0
BBX 10 15 0 0
BITMAP
3300
3F00
1E00
0000
F1C0
F3C0
6380
6780
6580
6D80
6980
7980
7180
F3C0
E3C0
ENDCHAR
STARTCHAR afii10028
ENCODING 1050
SWIDTH 600 0
DWIDTH 11 0
BBX 11 11 0 0
BITMAP
F7C0
F7C0
6300
6600
6C00
7C00
7E00
6700
6380
F9E0
F9E0
ENDCHAR
STARTCHAR afii10029
ENCODING 1051
SWIDTH 600 0
DWIDTH 11 0
BBX 11 11 -1 0
BITMAP
3FE0
3FE0
18C0
18C0
18C0
18C0
18C0
18C0
D8C0
F9E0
71E0
ENDCHAR
STARTCHAR afii10030
ENCODING 1052
SWIDTH 600 0
DWIDTH 11 0
BBX 11 11 0 0
BITMAP
E0E0
E0E0
71C0
71C0
7BC0
7FC0
6EC0
64C0
60C0
FBE0
FBE0
ENDCHAR
STARTCHAR afii10031
ENCODING 1053
SWIDTH 600 0
DWIDTH 11 0
BBX 10 11 0 0
BITMAP
F3C0
F3C0
6180
6180
7F80
7F80
6180
6180
6180
F3C0
F3C0
ENDCHAR
STARTCHAR afii10032
ENCODING 1054
SWIDTH 600 0
DWIDTH 11 0
BBX 10 11 0 0
BITMAP
1E00
7F80
6180
C0C0
C0C0
C0C0
C0C0
C0C0
6180
7F80
1E00
ENDCHAR
STARTCHAR afii10033
ENCODING 1055
SWIDTH 600 0
DWIDTH 11 0
BBX 10 11 0 0
BITMAP
FFC0
FFC0
6180
6180
6180
6180
6180
6180
6180
F3C0
F3C0
ENDCHAR
STARTCHAR afii10034
ENCODING 1056
SWIDTH 600 0
DWIDTH 11 0
BBX 10 11 0 0
BITMAP
FF00
FF80
61C0
60C0
61C0
7F80
7F00
6000
6000
FC00
FC00
ENDCHAR
STARTCHAR afii10035
ENCODING 1057
SWIDTH 600 0
DWIDTH 11 0
BBX 10 11 0 0
BITMAP
1EC0
7FC0
61C0
C0C0
C000
C000
C000
C000
60C0
7FC0
1F00
ENDCHAR
STARTCHAR afii10036
ENCODING 1058
SWIDTH 600 0
DWIDTH 11 0
BBX 10 11 0 0
BITMAP
FFC0
FFC0
CCC0
CCC0
CCC0
0C00
0C00
0C00
0C00
3F00
3F00
ENDCHAR
STARTCHAR afii10037
ENCODING 1059
SWIDTH 600 0
DWIDTH 11 0
BBX 11 11 0 0
BITMAP
F1E0
F1E0
60C0
3180
3180
1B00
1B00
0E00
6E00
7C00
3800
ENDCHAR
STARTCHAR afii10038
ENCODING 1060
SWIDTH 600 0
DWIDTH 11 0
BBX 10 11 0 0
BITMAP
1E00
0C00
7F80
FFC0
CCC0
CCC0
FFC0
7F80
0C00
1E00
1E00
ENDCHAR
STARTCHAR afii10039
ENCODING 1061
SWIDTH 600 0
DWIDTH 11 0
BBX 10 11 0 0
BITMAP
F3C0
F3C0
6180
3300
1E00
0C00
1E00
3300
6180
F3C0
F3C0
ENDCHAR
STARTCHAR afii10040
ENCODING 1062
SWIDTH 600 0
DWIDTH 11 0
BBX 10 13 0 -2
BITMAP
F3C0
F3C0
6180
6180
6180
6180
6180
6180
6180
FFC0
FFC0
00C0
00C0
ENDCHAR
STARTCHAR afii10041
ENCODING 1063
SWIDTH 600 0
DWIDTH 11 0
BBX 10 11 0 0
BITMAP
F3C0
F3C0
6180
6180
7380
3F80
1F80
0180
0180
03C0
03C0
ENDCHAR
STARTCHAR afii10042
ENCODING 1064
SWIDTH 600 0
DWIDTH 11 0
BBX 12 11 0 0
BITMAP
EEF0
EEF0
6660
6660
6660
6660
6660
6660
6660
FFF0
FFF0
ENDCHAR
STARTCHAR afii10043
ENCODING 1065
SWIDTH 600 0
DWIDTH 11 0
BBX 12 13 0 -2
BITMAP
EEF0
EEF0
6660
6660
6660
6660
6660
6660
6660
FFF0
FFF0
0030
0030
ENDCHAR
STARTCHAR afii10044
ENCODING 1066
SWIDTH 600 0
DWIDTH 11 0
BBX 11 11 0 0
BITMAP
FC00
FC00
D800
D800
1F80
1FC0
18E0
1860
18E0
3FC0
3F80
ENDCHAR
STARTCHAR afii10045
ENCODING 1067
SWIDTH 600 0
DWIDTH 11 0
BBX 12 11 0 0
BITMAP
F0F0
F0F0
6060
6060
7C60
7E60
6760
6360
6760
FEF0
FCF0
ENDCHAR
STARTCHAR afii10046
ENCODING 1068
SWIDTH 600 0
DWIDTH 11 0
BBX 10 11 0 0
BITMAP
F000
F000
6000
6000
7F00
7F80
61C0
60C0
61C0
FF80
FF00
ENDCHAR
STARTCHAR afii10047
ENCODING 1069
SWIDTH 600 0
DWIDTH 11 0
BBX 10 11 0 0
BITMAP
DE00
FF80
E180
C0C0
0FC0
0FC0
00C0
00C0
C180
FF80
3E00
ENDCHAR
STARTCHAR afii10048
ENCODING 1070
SWIDTH 600 0
DWIDTH 11 0
BBX 12 11 -1 0
BITMAP
F3C0
F7E0
6660
6C30
7C30
7C30
6C30
6C30
6660
F7E0
F3C0
ENDCHAR
STARTCHAR afii10049
ENCODING 1071
SWIDTH 600 0
DWIDTH 11 0
BBX 11 11 0 0
BITMAP
1FE0
3FE0
70C0
60C0
70C0
3FC0
1FC0
38C0
70C0
E3E0
E3E0
ENDCHAR
STARTCHAR afii10065
ENCODING 1072
SWIDTH 600 0
DWIDTH 11 0
BBX 10 9 0 0
BITMAP
3F00
7F80
6180
0180
7F80
FF80
C180
FFC0
7DC0
ENDCHAR
STARTCHAR afii10066
ENCODING 1073
SWIDTH 600 0
DWIDTH 11 0
BBX 10 13 0 0
BITMAP
00C0
1FC0
7F80
6000
DE00
FF80
E1C0
C0C0
C0C0
C0C0
E1C0
7F80
1E00
ENDCHAR
STARTCHAR afii10067
ENCODING 1074
SWIDTH 600 0
DWIDTH 11 0
BBX 10 9 0 0
BITMAP
FF00
FF80
6180
7F80
7F00
6180
61C0
FFC0
FF80
ENDCHAR
STARTCHAR afii10068
ENCODING 1075
SWIDTH 600 0
DWIDTH 11 0
BBX 9 9 1 0
BITMAP
FF80
FF80
3180
3180
3000
3000
3000
FC00
FC00
ENDCHAR
STARTCHAR afii10069
ENCODING 1076
SWIDTH 600 0
DWIDTH 11 0
BBX 10 11 0 -2
BITMAP
7FC0
7FC0
3180
3180
3180
3180
6180
FFC0
FFC0
C0C0
C0C0
ENDCHAR
STARTCHAR afii10070
ENCODING 1077
SWIDTH 600 0
DWIDTH 11 0
BBX 10 9 0 0
BITMAP
1E00
7F80
E1C0
C0C0
FFC0
FFC0
E000
7F80
1F80
ENDCHAR
STARTCHAR afii10072
ENCODING 1078
SWIDTH 600 0
DWIDTH 11 0
BBX 12 9 0 0
BITMAP
EF70
EF70
76E0
3FC0
1F80
3FC0
76E0
EF70
EF70
ENDCHAR
STARTCHAR afii10073
ENCODING 1079
SWIDTH 600 0
DWIDTH 11 0
BBX 9 9 1 0
BITMAP
DE00
FF00
E300
DF00
1E00
0300
C380
FF80
7F00
ENDCHAR
STARTCHAR afii10074
ENCODING 1080
SWIDTH 600 0
DWIDTH 11 0
BBX 10 9 0 0
BITMAP
F3C0
F3C0
6780
6F80
6D80
7D80
7980
F3C0
F3C0
ENDCHAR
STARTCHAR afii10075
ENCODING 1081
SWIDTH 600 0
DWIDTH 11 0
BBX 10 13 0 0
BITMAP
3300
3F00
1E00
0000
F3C0
F3C0
6780
6F80
6D80
7D80
7980
F3C0
F3C0
ENDCHAR
STARTCHAR afii10076
ENCODING 1082
SWIDTH 600 0
DWIDTH 11 0
BBX 10 9 0 0
BITMAP
F780
F780
6E00
7C00
7C00
6E00
6700
F3C0
F3C0
ENDCHAR
STARTCHAR afii10077
ENCODING 1083
SWIDTH 600 0
DWIDTH 11 0
BBX 11 9 -1 0
BITMAP
3FE0
3FE0
18C0
18C0
18C0
18C0
D8C0
F9E0
71E0
ENDCHAR
STARTCHAR afii10078
ENCODING 1084
SWIDTH 600 0
DWIDTH 11 0
BBX 11 9 0 0
BITMAP
E0E0
F1E0
71C0
7BC0
7FC0
6EC0
64C0
F1E0
F1E0
ENDCHAR
STARTCHAR afii10079
ENCODING 1085
SWIDTH 600 0
DWIDTH 11 0
BBX 10 9 0 0
BITMAP
F3C0
F3C0
6180
7F80
7F80
6180
6180
F3C0
F3C0
ENDCHAR
STARTCHAR afii10080
ENCODING 1086
SWIDTH 600 0
DWIDTH 11 0
BBX 10 9 0 0
BITMAP
1E00
7F80
E1C0
C0C0
C0C0
C0C0
E1C0
7F80
1E00
ENDCHAR
STARTCHAR afii10081
ENCODING 1087
SWIDTH 600 0
DWIDTH 11 0
BBX 10 9 0 0
BITMAP
FFC0
FFC0
6180
6180
6180
6180
6180
F3C0
F3C0
ENDCHAR
STARTCHAR afii10082
ENCODING 1088
SWIDTH 600 0
DWIDTH 11 0
BBX 10 13 0 -4
BITMAP
EF00
FF80
71C0
60C0
60C0
60C0
71C0
7F80
6F00
6000
6000
F800
F800
ENDCHAR
STARTCHAR afii10083
ENCODING 1089
SWIDTH 600 0
DWIDTH 11 0
BBX 10 9 0 0
BITMAP
3D80
7F80
E380
C180
C000
C000
E1C0
7FC0
3F00
ENDCHAR
STARTCHAR afii10084
ENCODING 1090
SWIDTH 600 0
DWIDTH 11 0
BBX 10 9 0 0
BITMAP
FFC0
FFC0
CCC0
CCC0
0C00
0C00
0C00
3F00
3F00
ENDCHAR
STARTCHAR afii10085
ENCODING 1091
SWIDTH 600 0
DWIDTH 11 0
BBX 10 13 0 -4
BITMAP
F3C0
F3C0
6180
6180
3300
3600
1E00
1C00
1800
1800
3000
FC00
FC00
ENDCHAR
STARTCHAR afii10086
ENCODING 1092
SWIDTH 600 0
DWIDTH 11 0
BBX 12 16 0 -4
BITMAP
0E00
0E00
0600
36C0
7FE0
EF70
C630
C630
C630
EF70
7FE0
36C0
0600
0600
0F00
0F00
ENDCHAR
STARTCHAR afii10087
ENCODING 1093
SWIDTH 600 0
DWIDTH 11 0
BBX 11 9 0 0
BITMAP
FBE0
FBE0
3180
1B00
0E00
1B00
3180
FBE0
FBE0
ENDCHAR
STARTCHAR afii10088
ENCODING 1094
SWIDTH 600 0
DWIDTH 11 0
BBX 10 11 0 -2
BITMAP
F3C0
F3C0
6180
6180
6180
6180
6180
FFC0
FFC0
00C0
00C0
ENDCHAR
STARTCHAR afii10089
ENCODING 1095
SWIDTH 600 0
DWIDTH 11 0
BBX 10 9 0 0
BITMAP
F3C0
F3C0
6180
6380
7F80
3D80
0180
03C0
03C0
ENDCHAR
STARTCHAR afii10090
ENCODING 1096
SWIDTH 600 0
DWIDTH 11 0
BBX 12 9 -1 0
BITMAP
EEF0
EEF0
6660
6660
6660
6660
6660
FFF0
FFF0
ENDCHAR
STARTCHAR afii10091
ENCODING 1097
SWIDTH 600 0
DWIDTH 11 0
BBX 12 11 -1 -2
BITMAP
EEF0
EEF0
6660
6660
6660
6660
6660
FFF0
FFF0
0030
0030
ENDCHAR
STARTCHAR afii10092
ENCODING 1098
SWIDTH 600 0
DWIDTH 11 0
BBX 10 9 0 0
BITMAP
FC00
FC00
D800
DF80
1FC0
18C0
18C0
3FC0
3F80
ENDCHAR
STARTCHAR afii10093
ENCODING 1099
SWIDTH 600 0
DWIDTH 11 0
BBX 11 9 0 0
BITMAP
F1E0
F1E0
60C0
7CC0
7EC0
66C0
66C0
FFE0
FDE0
ENDCHAR
STARTCHAR afii10094
ENCODING 1100
SWIDTH 600 0
DWIDTH 11 0
BBX 9 9 1 0
BITMAP
F000
F000
6000
7F00
7F80
6180
6180
FF80
FF00
ENDCHAR
STARTCHAR afii10095
ENCODING 1101
SWIDTH 600 0
DWIDTH 11 0
BBX 10 9 0 0
BITMAP
6F00
7F80
70C0
67C0
07C0
00C0
E1C0
FF80
3F00
ENDCHAR
STARTCHAR afii10096
ENCODING 1102
SWIDTH 600 0
DWIDTH 11 0
BBX 12 9 -1 0
BITMAP
F3C0
F7E0
6E70
7C30
7C30
6C30
6E70
F7E0
F3C0
ENDCHAR
STARTCHAR afii10097
ENCODING 1103
SWIDTH 600 0
DWIDTH 11 0
BBX 10 9 0 0
BITMAP
3FC0
7FC0
6180
6180
7F80
3F80
7180
E3C0
E3C0
ENDCHAR
STARTCHAR uni0450
ENCODING 1104
SWIDTH 600 0
DWIDTH 11 0
BBX 10 13 0 0
BITMAP
1800
0C00
0600
0000
1E00
7F80
E1C0
C0C0
FFC0
FFC0
E000
7F80
1F80
ENDCHAR
STARTCHAR afii10071
ENCODING 1105
SWIDTH 600 0
DWIDTH 11 0
BBX 10 12 0 0
BITMAP
3300
3300
0000
1E00
7F80
E1C0
C0C0
FFC0
FFC0
E000
7F80
1F80
ENDCHAR
STARTCHAR afii10101
ENCODING 1108
SWIDTH 600 0
DWIDTH 11 0
BBX 10 9 0 0
BITMAP
3D80
7F80
C380
F980
F800
C000
E1C0
7FC0
3F00
ENDCHAR
STARTCHAR afii10102
ENCODING 1109
SWIDTH 600 0
DWIDTH 11 0
BBX 8 9 1 0
BITMAP
7F
FF
C3
F0
7E
1F
C3
FF
FE
ENDCHAR
STARTCHAR afii10103
ENCODING 1110
SWIDTH 600 0
DWIDTH 11 0
BBX 8 12 1 0
BITMAP
18
18
00
F8
F8
18
18
18
18
18
FF
FF
ENDCHAR
STARTCHAR afii10104
ENCODING 1111
SWIDTH 600 0
DWIDTH 11 0
BBX 8 12 1 0
BITMAP
66
66
00
F8
F8
18
18
18
18
18
FF
FF
ENDCHAR
STARTCHAR afii10105
ENCODING 1112
SWIDTH 600 0
DWIDTH 11 0
BBX 7 16 1 -4
BITMAP
0C
0C
00
FE
FE
06
06
06
06
06
06
06
06
0E
FC
F8
ENDCHAR
STARTCHAR afii10110
ENCODING 1118
SWIDTH 600 0
DWIDTH 11 0
BBX 10 17 0 -4
BITMAP
3300
3F00
1E00
0000
F3C0
F3C0
6180
6180
3300
3600
1E00
1C00
1800
1800
3000
FC00
FC00
ENDCHAR
STARTCHAR afii10050
ENCODING 1168
SWIDTH 600 0
DWIDTH 11 0
BBX 10 14 0 0
BITMAP
00C0
00C0
00C0
FFC0
FFC0
3000
3000
3000
3000
3000
3000
3000
FC00
FC00
ENDCHAR
STARTCHAR afii10098
ENCODING 1169
SWIDTH 600 0
DWIDTH 11 0
BBX 9 11 1 0
BITMAP
0180
0180
FF80
FF80
3000
3000
3000
3000
3000
FC00
FC00
ENDCHAR
STARTCHAR uni04AA
ENCODING 1194
SWIDTH 600 0
DWIDTH 11 0
BBX 10 16 0 -5
BITMAP
1EC0
7FC0
61C0
C0C0
C000
C000
C000
C000
60C0
7FC0
1F00
0C00
0E00
0200
1E00
1C00
ENDCHAR
STARTCHAR uni04AB
ENCODING 1195
SWIDTH 600 0
DWIDTH 11 0
BBX 10 14 0 -5
BITMAP
3D80
7F80
E380
C180
C000
C000
E1C0
7FC0
3F00
0C00
0E00
0600
1E00
1C00
ENDCHAR
STARTCHAR uni04AE
ENCODING 1198
SWIDTH 600 0
DWIDTH 11 0
BBX 10 11 0 0
BITMAP
F3C0
F3C0
6180
3300
3F00
1E00
0C00
0C00
0C00
3F00
3F00
ENDCHAR
STARTCHAR uni04C0
ENCODING 1216
SWIDTH 600 0
DWIDTH 11 0
BBX 8 11 1 0
BITMAP
FF
FF
18
18
18
18
18
18
18
FF
FF
ENDCHAR
STARTCHAR uni04D2
ENCODING 1234
SWIDTH 600 0
DWIDTH 11 0
BBX 12 14 -1 0
BITMAP
1980
1980
0000
3E00
3F00
0F00
0F00
1980
1980
3FC0
3FC0
30C0
F9F0
F9F0
ENDCHAR
STARTCHAR uni04D3
ENCODING 1235
SWIDTH 600 0
DWIDTH 11 0
BBX 10 12 0 0
BITMAP
3300
3300
0000
3F00
7F80
6180
0180
7F80
FF80
C180
FFC0
7DC0
ENDCHAR
STARTCHAR uni04D4
ENCODING 1236
SWIDTH 600 0
DWIDTH 11 0
BBX 11 11 0 0
BITMAP
3FE0
3FE0
1E60
1600
37C0
37C0
3E00
7E00
6660
EFE0
EFE0
ENDCHAR
STARTCHAR uni04D5
ENCODING 1237
SWIDTH 600 0
DWIDTH 11 0
BBX 11 9 0 0
BITMAP
3B80
7FC0
6660
0660
7FE0
FFE0
C600
FFE0
79C0
ENDCHAR
STARTCHAR uni04E6
ENCODING 1254
SWIDTH 600 0
DWIDTH 11 0
BBX 10 14 0 0
BITMAP
3300
3300
0000
1E00
7F80
6180
C0C0
C0C0
C0C0
C0C0
C0C0
6180
7F80
1E00
ENDCHAR
STARTCHAR uni04E7
ENCODING 1255
SWIDTH 600 0
DWIDTH 11 0
BBX 10 12 0 0
BITMAP
3300
3300
0000
1E00
7F80
E1C0
C0C0
C0C0
C0C0
E1C0
7F80
1E00
ENDCHAR
ENDFONT
